 ######           ######                       
 #     # #  ####  #     # ###### #####  #    # 
 #     # # #    # #     # #      #    # ##  ## 
 ######  # #      ######  #####  #    # # ## # 
 #     # # #  ### #       #      #####  #    # 
 #     # # #    # #       #      #   #  #    # 
 ######  #  ####  #       ###### #    # #    # 

 PLOT

 The crew of the ship Serenity tries to evade an assassin sent to
 recapture one of their number who is telepathic.

 Runtime ..........: 1h 58mn
 File Size ........: 1.28 GiB
 Resolution .......: 704x396
 IMDb URL .........: http://www.imdb.com/title/tt0379786/
 Language .........: English
 Video
 ID : 0
 Format : MPEG-4 Visual
 Format profile : Advanced Simple@L5
 Format settings, BVOP : Yes
 Format settings, QPel : No
 Format settings, GMC : No warppoints
 Format settings, Matrix : Default (H.263)
 Codec ID : XVID
 Codec ID/Hint : XviD
 Duration : 1h 58mn
 Bit rate : 43.4 Kbps
 Width : 704 pixels
 Height : 396 pixels
 Display aspect ratio : 16:9
 Frame rate : 29.970 fps
 Color space : YUV
 Chroma subsampling : 4:2:0
 Bit depth : 8 bits
 Scan type : Progressive
 Compression mode : Lossy
 Bits/(Pixel*Frame) : 0.005
 Stream size : 36.9 MiB (3%)
 Writing library : XviD 1.2.1 (UTC 2008-12-04)

 Audio
 ID : 1
 Format : AC-3
 Format/Info : Audio Coding 3
 Codec ID : 2000
 Duration : 1h 58mn
 Bit rate mode : Constant
 Bit rate : 448 Kbps
 Channel(s) : 6 channels
 Sampling rate : 48.0 KHz
 Bit depth : 16 bits
 Compression mode : Lossy
 Stream size : 381 MiB (29%)
 Alignment : Aligned on interleaves
  http://www.imdb.com/title/tt0379786/


 Screen SHots:
  http://leetleech.org/images/73184023072357453816.png
  http://leetleech.org/images/60861048463529679213.png
  http://leetleech.org/images/81130351713120843145.png
  http://leetleech.org/images/54892404873792633417.png

 ######           ######                       
 #     # #  ####  #     # ###### #####  #    # 
 #     # # #    # #     # #      #    # ##  ## 
 ######  # #      ######  #####  #    # # ## # 
 #     # # #  ### #       #      #####  #    # 
 #     # # #    # #       #      #   #  #    # 
 ######  #  ####  #       ###### #    # #    # 